<?xml version="1.0" encoding="UTF-8"?>
<svg width="64" height="64" viewBox="0 0 64 64" xmlns="http://www.w3.org/2000/svg">
  <defs>
    <!-- Neon glow effect for favicon -->
    <filter id="faviconGlow" x="-20%" y="-20%" width="140%" height="140%">
      <feGaussianBlur stdDeviation="1.5" result="coloredBlur"/>
      <feMerge> 
        <feMergeNode in="coloredBlur"/>
        <feMergeNode in="SourceGraphic"/>
      </feMerge>
    </filter>
    
    <!-- Background gradient -->
    <radialGradient id="bgGradient" cx="50%" cy="50%" r="50%">
      <stop offset="0%" style="stop-color:#1a1a2e;stop-opacity:1" />
      <stop offset="100%" style="stop-color:#0f0f23;stop-opacity:1" />
    </radialGradient>
  </defs>
  
  <!-- Background -->
  <rect width="64" height="64" fill="url(#bgGradient)" rx="8" ry="8"/>
  
  <!-- Classic T-piece in the center -->
  <g transform="translate(20, 16)">
    <!-- Top horizontal bar -->
    <rect x="0" y="0" width="8" height="8" fill="#39FF14" filter="url(#faviconGlow)" rx="1"/>
    <rect x="8" y="0" width="8" height="8" fill="#39FF14" filter="url(#faviconGlow)" rx="1"/>
    <rect x="16" y="0" width="8" height="8" fill="#39FF14" filter="url(#faviconGlow)" rx="1"/>
    <!-- Vertical stem -->
    <rect x="8" y="8" width="8" height="8" fill="#39FF14" filter="url(#faviconGlow)" rx="1"/>
    <rect x="8" y="16" width="8" height="8" fill="#39FF14" filter="url(#faviconGlow)" rx="1"/>
    <rect x="8" y="24" width="8" height="8" fill="#39FF14" filter="url(#faviconGlow)" rx="1"/>
  </g>
  
  <!-- Small accent blocks for detail -->
  <g opacity="0.7">
    <!-- Top left -->
    <rect x="8" y="8" width="4" height="4" fill="#00FFFF" filter="url(#faviconGlow)" rx="0.5"/>
    <!-- Top right -->
    <rect x="52" y="8" width="4" height="4" fill="#FF1493" filter="url(#faviconGlow)" rx="0.5"/>
    <!-- Bottom left -->
    <rect x="8" y="52" width="4" height="4" fill="#FFD700" filter="url(#faviconGlow)" rx="0.5"/>
    <!-- Bottom right -->
    <rect x="52" y="52" width="4" height="4" fill="#9D00FF" filter="url(#faviconGlow)" rx="0.5"/>
  </g>
  
  <!-- Border glow -->
  <rect width="64" height="64" fill="none" stroke="rgba(57, 255, 20, 0.4)" stroke-width="1" rx="8" ry="8" filter="url(#faviconGlow)"/>
</svg>